<svg width="37" height="38" viewBox="0 0 37 38" fill="none" xmlns="http://www.w3.org/2000/svg">
<path d="M19 8.07344C19.0152 5.92067 19.4317 3.78961 20.2281 1.78953C19.8392 1.78953 19.4503 1.78953 19.0409 1.78953C15.9048 1.78567 12.827 2.63761 10.1392 4.25356C7.45147 5.86952 5.25556 8.18824 3.78812 10.9599C2.32068 13.7315 1.63732 16.8511 1.81168 19.9824C1.98604 23.1137 3.0115 26.1381 4.77758 28.7297C6.54366 31.3213 8.98342 33.3819 11.834 34.6894C14.6846 35.997 17.8379 36.502 20.9542 36.15C24.0705 35.798 27.0318 34.6023 29.5188 32.6918C32.0059 30.7813 33.9245 28.2284 35.068 25.3081C30.7005 25.0167 26.608 23.0724 23.6231 19.8707C20.6382 16.6691 18.9851 12.4506 19 8.07344V8.07344Z" stroke="white" stroke-width="2.45625" stroke-linecap="round" stroke-linejoin="round"/>
<path d="M30.135 5.71953C29.4848 5.75023 28.8612 5.98677 28.3542 6.395C28.1235 6.57686 27.9346 6.80626 27.8003 7.06763C27.6661 7.32899 27.5898 7.61618 27.5764 7.90969C27.5556 7.61781 27.476 7.33316 27.3423 7.07285C27.2086 6.81255 27.0237 6.58198 26.7986 6.395C26.2895 5.99043 25.6671 5.75435 25.0178 5.71953C25.668 5.70655 26.295 5.47592 26.7986 5.06453C27.0228 4.87677 27.2071 4.64601 27.3407 4.38587C27.4743 4.12572 27.5545 3.84146 27.5764 3.54984C27.5898 3.84335 27.6661 4.13054 27.8003 4.3919C27.9346 4.65327 28.1235 4.88267 28.3542 5.06453C28.8562 5.47875 29.4843 5.70975 30.135 5.71953Z" fill="white"/>
<path d="M36.3166 15.9334C35.6664 15.9641 35.0428 16.2007 34.5358 16.6089C34.305 16.7908 34.1161 17.0202 33.9819 17.2815C33.8477 17.5429 33.7713 17.8301 33.758 18.1236C33.7372 17.8317 33.6575 17.5471 33.5239 17.2868C33.3902 17.0265 33.2052 16.7959 32.9802 16.6089C32.4936 16.2198 31.9021 15.9846 31.2812 15.9334C31.9314 15.9205 32.5584 15.6898 33.062 15.2784C33.2862 15.0907 33.4706 14.8599 33.6042 14.5998C33.7377 14.3396 33.8179 14.0554 33.8398 13.7637C33.8532 14.0573 33.9296 14.3444 34.0638 14.6058C34.198 14.8672 34.3869 15.0966 34.6177 15.2784C35.0977 15.6757 35.6941 15.9056 36.3166 15.9334Z" fill="white"/>
<path d="M28.6408 14.8281C28.1238 14.8396 27.6232 15.0112 27.208 15.3194C27.029 15.4548 26.8814 15.6274 26.7754 15.8253C26.6694 16.0231 26.6075 16.2416 26.5939 16.4656C26.5693 16.2421 26.5005 16.0256 26.3916 15.8289C26.2827 15.6321 26.1358 15.4589 25.9594 15.3194C25.5505 15.014 25.0572 14.8425 24.547 14.8281C25.0572 14.8138 25.5505 14.6422 25.9594 14.3369C26.1358 14.1973 26.2827 14.0241 26.3916 13.8274C26.5005 13.6306 26.5693 13.4142 26.5939 13.1906C26.6075 13.4147 26.6694 13.6331 26.7754 13.831C26.8814 14.0289 27.029 14.2014 27.208 14.3369C27.6232 14.645 28.1238 14.8167 28.6408 14.8281Z" fill="white"/>
</svg>
