<svg width="38" height="25" viewBox="0 0 38 25" fill="none" xmlns="http://www.w3.org/2000/svg">
<path d="M30.7695 23.3064C32.2193 22.9712 33.5207 22.1734 34.4773 21.0336C35.4339 19.8937 35.9937 18.4737 36.0723 16.9877C36.1509 15.5017 35.7439 14.0305 34.9129 12.7961C34.0819 11.5618 32.8718 10.6312 31.4655 10.145C30.2355 9.75265 28.9256 9.68212 27.6607 9.94013C26.3957 10.1981 25.218 10.7761 24.24 11.6187C22.4792 13.3176 20.9821 15.27 19.7983 17.4114C16.9531 21.8326 10.9967 25.0462 5.81812 22.3444C4.56643 21.705 3.51922 20.7272 2.79554 19.5223C2.07186 18.3174 1.70074 16.9336 1.72437 15.5283C1.72434 14.4801 1.93178 13.4424 2.33473 12.4748C2.73768 11.5072 3.32818 10.629 4.07216 9.89069C4.81615 9.15241 5.69892 8.5687 6.66957 8.17321C7.64022 7.77772 8.67956 7.57828 9.72765 7.58639H10.8125C11.2675 6.13447 12.0894 4.82451 13.1988 3.78319C14.3081 2.74187 15.6675 2.00444 17.1452 1.64219C18.623 1.27995 20.1693 1.30516 21.6345 1.71538C23.0997 2.12561 24.4342 2.90696 25.5091 3.98389C26.0118 4.48099 26.4517 5.03779 26.8191 5.64186" stroke="white" stroke-width="2.45625" stroke-linecap="round" stroke-linejoin="round"/>
</svg>
