<svg width="32" height="30" viewBox="0 0 32 30" fill="none" xmlns="http://www.w3.org/2000/svg">
<path d="M25.6956 19.5348C26.8783 19.2666 27.94 18.6284 28.7204 17.7165C29.5007 16.8046 29.9574 15.6686 30.0215 14.4798C30.0857 13.291 29.7536 12.114 29.0757 11.1265C28.3978 10.1391 27.4106 9.39461 26.2634 9.00565C25.2599 8.69177 24.1913 8.63535 23.1595 8.84175C22.1275 9.04813 21.1667 9.51053 20.3689 10.1846C18.9324 11.5437 17.7111 13.1056 16.7454 14.8188C14.4243 18.3557 9.56514 20.9266 5.3405 18.7652C4.31939 18.2537 3.46509 17.4714 2.87472 16.5075C2.28435 15.5436 1.98159 14.4365 2.00087 13.3123C2.00084 12.4737 2.17007 11.6436 2.49879 10.8695C2.82751 10.0954 3.30924 9.39285 3.91617 8.8022C4.52311 8.21158 5.24326 7.74461 6.03511 7.42822C6.82695 7.11183 7.67484 6.95227 8.52986 6.95876H9.41487C9.78605 5.79723 10.4565 4.74926 11.3616 3.9162C12.2665 3.08315 13.3755 2.4932 14.581 2.2034C15.7866 1.91361 17.048 1.93378 18.2433 2.26195C19.4386 2.59014 20.5273 3.21522 21.4042 4.07676C21.8143 4.47444 22.1732 4.91988 22.4729 5.40314" stroke="white" stroke-width="2.45625" stroke-linecap="round" stroke-linejoin="round"/>
<path d="M17.5 29C17.0606 29.0016 16.6287 28.8893 16.248 28.6745C15.8672 28.4596 15.5512 28.1499 15.332 27.7766C15.1128 27.4034 14.9983 26.98 15 26.5493C15.0017 26.1186 15.1196 25.6961 15.3417 25.3245L17.1956 22.178C17.2252 22.1242 17.2692 22.0792 17.3228 22.0479C17.3764 22.0165 17.4376 22 17.5 22C17.5624 22 17.6236 22.0165 17.6772 22.0479C17.7308 22.0792 17.7748 22.1242 17.8044 22.178L19.6583 25.3245C19.8804 25.6961 19.9983 26.1186 20 26.5493C20.0017 26.98 19.8872 27.4034 19.668 27.7766C19.4488 28.1499 19.1328 28.4596 18.752 28.6745C18.3713 28.8893 17.9393 29.0016 17.5 29Z" stroke="white" stroke-width="1.5" stroke-linecap="round" stroke-linejoin="round"/>
<path d="M24.5835 28.8896C24.2322 28.886 23.8878 28.7863 23.585 28.6004C23.2821 28.4145 23.0312 28.149 22.8573 27.8303C22.6834 27.5115 22.5927 27.1508 22.5941 26.7841C22.5956 26.4173 22.6891 26.0573 22.8654 25.7401L24.335 23.0426C24.3596 22.9962 24.3956 22.9576 24.4393 22.9307C24.483 22.9038 24.5328 22.8896 24.5835 22.8896C24.6342 22.8896 24.684 22.9038 24.7277 22.9307C24.7714 22.9576 24.8074 22.9962 24.832 23.0426L26.3229 25.7401C26.5001 26.0589 26.5936 26.421 26.5941 26.7896C26.5946 27.1582 26.502 27.5205 26.3256 27.8398C26.1492 28.1592 25.8953 28.4244 25.5895 28.6087C25.2836 28.793 24.9366 28.8899 24.5835 28.8896Z" stroke="white" stroke-width="1.5" stroke-linecap="round" stroke-linejoin="round"/>
<path d="M21.4961 19.9842C21.2343 19.9831 20.9773 19.9025 20.7505 19.7506C20.5238 19.5986 20.3353 19.3805 20.2036 19.1179C20.072 18.8553 20.0018 18.5573 20 18.2535C19.9983 17.9498 20.065 17.6508 20.1936 17.3861L21.3101 15.1273C21.3285 15.0887 21.3554 15.0566 21.3881 15.0342C21.4209 15.0118 21.4582 15 21.4961 15C21.5341 15 21.5714 15.0118 21.6041 15.0342C21.6369 15.0566 21.6638 15.0887 21.6822 15.1273L22.7987 17.3861C22.9317 17.6534 23.0012 17.957 23 18.2656C22.9988 18.5743 22.9269 18.8771 22.7917 19.143C22.6565 19.4088 22.4628 19.6283 22.2305 19.7788C21.9982 19.9293 21.7356 20.0056 21.4696 19.9997L21.4961 19.9842Z" stroke="white" stroke-width="1.5" stroke-linecap="round" stroke-linejoin="round"/>
</svg>
